<svg width="237" height="45" viewBox="0 0 237 45" fill="none" xmlns="http://www.w3.org/2000/svg">
<path d="M8.15625 0.875L18 27.0312L27.8203 0.875H35.4844V35H29.5781V23.75L30.1641 8.70312L20.0859 35H15.8438L5.78906 8.72656L6.375 23.75V35H0.46875V0.875H8.15625ZM52.9922 17.0469L60.8438 0.875H67.4062L55.9688 22.4375V35H50.0156V22.4375L38.5547 0.875H45.1406L52.9922 17.0469Z" fill="#060606"/>
<path d="M83.3203 22.5078H77.7188V35H70.6875V0.875H83.3672C87.3984 0.875 90.5078 1.77344 92.6953 3.57031C94.8828 5.36719 95.9766 7.90625 95.9766 11.1875C95.9766 13.5156 95.4688 15.4609 94.4531 17.0234C93.4531 18.5703 91.9297 19.8047 89.8828 20.7266L97.2656 34.6719V35H89.7188L83.3203 22.5078ZM77.7188 16.8125H83.3906C85.1562 16.8125 86.5234 16.3672 87.4922 15.4766C88.4609 14.5703 88.9453 13.3281 88.9453 11.75C88.9453 10.1406 88.4844 8.875 87.5625 7.95312C86.6562 7.03125 85.2578 6.57031 83.3672 6.57031H77.7188V16.8125ZM112.57 35.4688C108.852 35.4688 105.82 34.3281 103.477 32.0469C101.148 29.7656 99.9844 26.7266 99.9844 22.9297V22.2734C99.9844 19.7266 100.477 17.4531 101.461 15.4531C102.445 13.4375 103.836 11.8906 105.633 10.8125C107.445 9.71875 109.508 9.17188 111.82 9.17188C115.289 9.17188 118.016 10.2656 120 12.4531C122 14.6406 123 17.7422 123 21.7578V24.5234H106.852C107.07 26.1797 107.727 27.5078 108.82 28.5078C109.93 29.5078 111.328 30.0078 113.016 30.0078C115.625 30.0078 117.664 29.0625 119.133 27.1719L122.461 30.8984C121.445 32.3359 120.07 33.4609 118.336 34.2734C116.602 35.0703 114.68 35.4688 112.57 35.4688ZM111.797 14.6562C110.453 14.6562 109.359 15.1094 108.516 16.0156C107.688 16.9219 107.156 18.2188 106.922 19.9062H116.344V19.3672C116.312 17.8672 115.906 16.7109 115.125 15.8984C114.344 15.0703 113.234 14.6562 111.797 14.6562ZM149.695 22.5547C149.695 26.4609 148.805 29.5938 147.023 31.9531C145.258 34.2969 142.867 35.4688 139.852 35.4688C137.289 35.4688 135.219 34.5781 133.641 32.7969V44.75H126.867V9.64062H133.148L133.383 12.125C135.023 10.1562 137.164 9.17188 139.805 9.17188C142.93 9.17188 145.359 10.3281 147.094 12.6406C148.828 14.9531 149.695 18.1406 149.695 22.2031V22.5547ZM142.922 22.0625C142.922 19.7031 142.5 17.8828 141.656 16.6016C140.828 15.3203 139.617 14.6797 138.023 14.6797C135.898 14.6797 134.438 15.4922 133.641 17.1172V27.5C134.469 29.1719 135.945 30.0078 138.07 30.0078C141.305 30.0078 142.922 27.3594 142.922 22.0625ZM152.859 22.0859C152.859 19.5703 153.344 17.3281 154.312 15.3594C155.281 13.3906 156.672 11.8672 158.484 10.7891C160.312 9.71094 162.43 9.17188 164.836 9.17188C168.258 9.17188 171.047 10.2188 173.203 12.3125C175.375 14.4062 176.586 17.25 176.836 20.8438L176.883 22.5781C176.883 26.4688 175.797 29.5938 173.625 31.9531C171.453 34.2969 168.539 35.4688 164.883 35.4688C161.227 35.4688 158.305 34.2969 156.117 31.9531C153.945 29.6094 152.859 26.4219 152.859 22.3906V22.0859ZM159.633 22.5781C159.633 24.9844 160.086 26.8281 160.992 28.1094C161.898 29.375 163.195 30.0078 164.883 30.0078C166.523 30.0078 167.805 29.3828 168.727 28.1328C169.648 26.8672 170.109 24.8516 170.109 22.0859C170.109 19.7266 169.648 17.8984 168.727 16.6016C167.805 15.3047 166.508 14.6562 164.836 14.6562C163.18 14.6562 161.898 15.3047 160.992 16.6016C160.086 17.8828 159.633 19.875 159.633 22.5781ZM195.305 15.9922C194.383 15.8672 193.57 15.8047 192.867 15.8047C190.305 15.8047 188.625 16.6719 187.828 18.4062V35H181.055V9.64062H187.453L187.641 12.6641C189 10.3359 190.883 9.17188 193.289 9.17188C194.039 9.17188 194.742 9.27344 195.398 9.47656L195.305 15.9922ZM207.867 3.40625V9.64062H212.203V14.6094H207.867V27.2656C207.867 28.2031 208.047 28.875 208.406 29.2812C208.766 29.6875 209.453 29.8906 210.469 29.8906C211.219 29.8906 211.883 29.8359 212.461 29.7266V34.8594C211.133 35.2656 209.766 35.4688 208.359 35.4688C203.609 35.4688 201.188 33.0703 201.094 28.2734V14.6094H197.391V9.64062H201.094V3.40625H207.867ZM229.711 27.9922C229.711 27.1641 229.297 26.5156 228.469 26.0469C227.656 25.5625 226.344 25.1328 224.531 24.7578C218.5 23.4922 215.484 20.9297 215.484 17.0703C215.484 14.8203 216.414 12.9453 218.273 11.4453C220.148 9.92969 222.594 9.17188 225.609 9.17188C228.828 9.17188 231.398 9.92969 233.32 11.4453C235.258 12.9609 236.227 14.9297 236.227 17.3516H229.453C229.453 16.3828 229.141 15.5859 228.516 14.9609C227.891 14.3203 226.914 14 225.586 14C224.445 14 223.562 14.2578 222.938 14.7734C222.312 15.2891 222 15.9453 222 16.7422C222 17.4922 222.352 18.1016 223.055 18.5703C223.773 19.0234 224.977 19.4219 226.664 19.7656C228.352 20.0938 229.773 20.4688 230.93 20.8906C234.508 22.2031 236.297 24.4766 236.297 27.7109C236.297 30.0234 235.305 31.8984 233.32 33.3359C231.336 34.7578 228.773 35.4688 225.633 35.4688C223.508 35.4688 221.617 35.0938 219.961 34.3438C218.32 33.5781 217.031 32.5391 216.094 31.2266C215.156 29.8984 214.688 28.4688 214.688 26.9375H221.109C221.172 28.1406 221.617 29.0625 222.445 29.7031C223.273 30.3438 224.383 30.6641 225.773 30.6641C227.07 30.6641 228.047 30.4219 228.703 29.9375C229.375 29.4375 229.711 28.7891 229.711 27.9922Z" fill="#563AFF"/>
</svg>
